<svg width="24" height="25" viewBox="0 0 24 25" fill="none" xmlns="http://www.w3.org/2000/svg">
<path d="M18.75 5.1915L19.3125 5.754C19.6667 6.129 19.8438 6.54566 19.8438 7.004C19.8438 7.46233 19.6667 7.879 19.3125 8.254L18.375 9.1915L15.3125 6.129L16.25 5.1915C16.625 4.83733 17.0417 4.66025 17.5 4.66025C17.9583 4.66025 18.375 4.83733 18.75 5.1915ZM9.375 12.0665L14.625 6.8165L17.6875 9.879L12.4375 15.129C12.25 15.3165 12.0312 15.4519 11.7812 15.5352L9 16.4727C8.70833 16.5561 8.44792 16.4936 8.21875 16.2852C8.01042 16.0561 7.94792 15.7957 8.03125 15.504L8.96875 12.754C9.05208 12.4832 9.1875 12.254 9.375 12.0665ZM7 6.504H10C10.2917 6.504 10.5312 6.59775 10.7188 6.78525C10.9062 6.97275 11 7.21233 11 7.504C11 7.79566 10.9062 8.03525 10.7188 8.22275C10.5312 8.41025 10.2917 8.504 10 8.504H7C6.70833 8.504 6.46875 8.59775 6.28125 8.78525C6.09375 8.97275 6 9.21233 6 9.504V17.504C6 17.7957 6.09375 18.0352 6.28125 18.2227C6.46875 18.4102 6.70833 18.504 7 18.504H15C15.2917 18.504 15.5312 18.4102 15.7188 18.2227C15.9062 18.0352 16 17.7957 16 17.504V14.504C16 14.2123 16.0938 13.9727 16.2812 13.7852C16.4688 13.5977 16.7083 13.504 17 13.504C17.2917 13.504 17.5312 13.5977 17.7188 13.7852C17.9062 13.9727 18 14.2123 18 14.504V17.504C17.9792 18.3582 17.6875 19.0665 17.125 19.629C16.5625 20.1915 15.8542 20.4832 15 20.504H7C6.14583 20.4832 5.4375 20.1915 4.875 19.629C4.3125 19.0665 4.02083 18.3582 4 17.504V9.504C4.02083 8.64983 4.3125 7.9415 4.875 7.379C5.4375 6.8165 6.14583 6.52483 7 6.504Z" fill="#255A90"/>
</svg>
