<svg width="22" height="17" viewBox="0 0 22 17" fill="none" xmlns="http://www.w3.org/2000/svg">
<path d="M6.78125 4.28125C8.5625 2.875 11.125 3 12.75 4.625C14.125 6 14.4375 8 13.6875 9.6875L14.6875 10.4688L17.6875 7.46875C18.6875 6.46875 18.6875 4.875 17.6875 3.90625C16.8125 3.03125 15.4375 2.90625 14.4375 3.625L14.4062 3.65625C13.9375 4 13.3125 3.875 13 3.4375C12.6875 3 12.7812 2.375 13.2188 2.03125L13.2812 2C15.0938 0.71875 17.5312 0.9375 19.0938 2.5C20.875 4.25 20.875 7.125 19.0938 8.875L16.2812 11.7188L20.6875 15.1875C21.0312 15.4375 21.0938 15.9062 20.8125 16.2188C20.5625 16.5625 20.0938 16.625 19.7812 16.3438L1.28125 1.84375C0.9375 1.59375 0.875 1.125 1.15625 0.8125C1.40625 0.46875 1.875 0.40625 2.1875 0.6875L6.78125 4.28125ZM8.4375 5.5625L12.0312 8.375C12.2188 7.5625 11.9688 6.6875 11.3438 6.0625C10.5625 5.28125 9.40625 5.09375 8.4375 5.5625ZM9.21875 12.375C8.28125 11.4688 7.8125 10.1875 7.875 8.9375L13.6875 13.5312C12.1562 13.9688 10.4062 13.5938 9.21875 12.375ZM4.625 6.375L6.21875 7.625L4.28125 9.5625C3.28125 10.5312 3.28125 12.125 4.28125 13.125C5.15625 14 6.53125 14.0938 7.53125 13.4062L7.5625 13.3438C8.03125 13.0312 8.65625 13.125 8.96875 13.5938C9.28125 14.0312 9.1875 14.6562 8.75 15L8.6875 15.0312C6.875 16.3125 4.4375 16.0938 2.875 14.5312C1.09375 12.7812 1.09375 9.90625 2.875 8.15625L4.625 6.375Z" fill="#255A90"/>
</svg>
