<svg width="16" height="17" viewBox="0 0 16 17" fill="none" xmlns="http://www.w3.org/2000/svg">
<path d="M15.3125 1.78125C16 2.46875 16 3.5625 15.3125 4.25L14.375 5.1875L11.3125 2.125L12.25 1.1875C12.9375 0.5 14.0312 0.5 14.7188 1.1875L15.3125 1.78125ZM5.375 8.0625L10.5938 2.84375L13.6562 5.90625L8.4375 11.125C8.25 11.3125 8 11.4688 7.75 11.5625L4.96875 12.4688C4.6875 12.5625 4.40625 12.5 4.21875 12.2812C4 12.0938 3.9375 11.7812 4.03125 11.5312L4.9375 8.75C5.03125 8.5 5.1875 8.25 5.375 8.0625ZM6 2.5C6.53125 2.5 7 2.96875 7 3.5C7 4.0625 6.53125 4.5 6 4.5H3C2.4375 4.5 2 4.96875 2 5.5V13.5C2 14.0625 2.4375 14.5 3 14.5H11C11.5312 14.5 12 14.0625 12 13.5V10.5C12 9.96875 12.4375 9.5 13 9.5C13.5312 9.5 14 9.96875 14 10.5V13.5C14 15.1562 12.6562 16.5 11 16.5H3C1.3125 16.5 0 15.1562 0 13.5V5.5C0 3.84375 1.3125 2.5 3 2.5H6Z" fill="#255A90"/>
</svg>
