<svg width="32" height="33" viewBox="0 0 32 33" fill="none" xmlns="http://www.w3.org/2000/svg">
<path d="M17.25 8.25V9.03125C20.1016 9.61719 22.25 12.1172 22.25 15.125V15.8672C22.25 17.7031 22.9141 19.5 24.125 20.8672L24.3984 21.1797C24.75 21.5703 24.8281 22.0781 24.6328 22.5469C24.4375 22.9766 23.9688 23.25 23.5 23.25H8.5C7.99219 23.25 7.52344 22.9766 7.32812 22.5469C7.13281 22.0781 7.21094 21.5703 7.5625 21.1797L7.83594 20.8672C9.04688 19.5 9.75 17.7031 9.75 15.8672V15.125C9.75 12.1172 11.8594 9.61719 14.75 9.03125V8.25C14.75 7.58594 15.2969 7 16 7C16.6641 7 17.25 7.58594 17.25 8.25ZM16 27C15.3359 27 14.6719 26.7656 14.2031 26.2969C13.7344 25.8281 13.5 25.1641 13.5 24.5H18.5C18.5 25.1641 18.2266 25.8281 17.7578 26.2969C17.2891 26.7656 16.625 27 16 27Z" fill="white"/>
</svg>
