<?xml version="1.0" encoding="UTF-8" standalone="no"?>
<svg width="48" height="48" viewBox="0 0 48 48" fill="none" xmlns="http://www.w3.org/2000/svg">
<path d="M1 6C1 3.23858 3.23858 1 6 1H42C44.7614 1 47 3.23858 47 6V42C47 44.7614 44.7614 47 42 47H6C3.23858 47 1 44.7614 1 42V6Z" fill="#255A90"/>
<path d="M1 6C1 3.23858 3.23858 1 6 1H42C44.7614 1 47 3.23858 47 6V42C47 44.7614 44.7614 47 42 47H6C3.23858 47 1 44.7614 1 42V6Z" stroke="#255A90" stroke-width="2"/>
<path d="M34.5 13.5C36.1406 13.5 37.5 14.8594 37.5 16.5V31.5C37.5 33.1875 36.1406 34.5 34.5 34.5H13.5C11.8125 34.5 10.5 33.1875 10.5 31.5V16.5C10.5 14.8594 11.8125 13.5 13.5 13.5H34.5ZM18.75 18C17.0625 18 15.75 19.3594 15.75 21C15.75 22.6875 17.0625 24 18.75 24C20.3906 24 21.75 22.6875 21.75 21C21.75 19.3594 20.3906 18 18.75 18ZM23.25 30C23.625 30 24 29.6719 24 29.25C24 27.1875 22.3125 25.5 20.25 25.5H17.25C15.1406 25.5 13.5 27.1875 13.5 29.25C13.5 29.6719 13.8281 30 14.25 30H23.25ZM33.75 27C34.125 27 34.5 26.6719 34.5 26.25C34.5 25.875 34.125 25.5 33.75 25.5H27.75C27.3281 25.5 27 25.875 27 26.25C27 26.6719 27.3281 27 27.75 27H33.75ZM33.75 24C34.125 24 34.5 23.6719 34.5 23.25C34.5 22.875 34.125 22.5 33.75 22.5H27.75C27.3281 22.5 27 22.875 27 23.25C27 23.6719 27.3281 24 27.75 24H33.75ZM33.75 21C34.125 21 34.5 20.6719 34.5 20.25C34.5 19.875 34.125 19.5 33.75 19.5H27.75C27.3281 19.5 27 19.875 27 20.25C27 20.6719 27.3281 21 27.75 21H33.75Z" fill="white"/>
</svg>

