<svg width="18" height="16" viewBox="0 0 18 16" fill="none" xmlns="http://www.w3.org/2000/svg">
<path d="M17.9688 8C17.9688 8.5625 17.5 9 16.9688 9H15.9688L16 14C16 14.0938 16 14.1875 16 14.25V14.75C16 15.4688 15.4375 16 14.75 16H14.25C14.1875 16 14.1562 16 14.125 16C14.0938 16 14.0312 16 14 16H12.25C11.5312 16 11 15.4688 11 14.75V12C11 11.4688 10.5312 11 10 11H8C7.4375 11 7 11.4688 7 12V14.75C7 15.4688 6.4375 16 5.75 16H4C3.9375 16 3.90625 16 3.84375 16C3.8125 16 3.78125 16 3.75 16H3.25C2.53125 16 2 15.4688 2 14.75V11.25C2 11.25 2 11.2188 2 11.1875V9H1C0.4375 9 0 8.5625 0 8C0 7.71875 0.09375 7.46875 0.3125 7.25L8.3125 0.28125C8.53125 0.0625 8.78125 0 9 0C9.21875 0 9.46875 0.09375 9.65625 0.25L17.625 7.25C17.875 7.46875 18 7.71875 17.9688 8Z" fill="white"/>
</svg>
