<?xml version="1.0" encoding="UTF-8" standalone="no"?>
<svg width="48" height="48" viewBox="0 0 48 48" fill="none" xmlns="http://www.w3.org/2000/svg">
<path d="M1 6C1 3.23858 3.23858 1 6 1H42C44.7614 1 47 3.23858 47 6V42C47 44.7614 44.7614 47 42 47H6C3.23858 47 1 44.7614 1 42V6Z" fill="#255A90"/>
<path d="M1 6C1 3.23858 3.23858 1 6 1H42C44.7614 1 47 3.23858 47 6V42C47 44.7614 44.7614 47 42 47H6C3.23858 47 1 44.7614 1 42V6Z" stroke="#255A90" stroke-width="2"/>
<path d="M24 12C30.6094 12 36 17.3906 36 24C36 30.6562 30.6094 36 24 36C21.4219 36 19.0781 35.2031 17.1094 33.8906C16.4531 33.375 16.2656 32.4375 16.7344 31.7812C17.2031 31.0781 18.1406 30.9375 18.8438 31.4062C20.2969 32.4375 22.0781 33 24 33C28.9688 33 33 28.9688 33 24C33 19.0312 28.9688 15 24 15C21.4688 15 19.2656 16.0312 17.625 17.6719L19.0781 19.0781C19.7812 19.8281 19.2656 21 18.2812 21H13.125C12.4688 21 12 20.5312 12 19.875V14.7188C12 13.7344 13.1719 13.2188 13.875 13.9219L15.4688 15.5156C17.6719 13.3594 20.6719 12 23.9531 12H24ZM24 18C24.6094 18 25.125 18.5156 25.125 19.125V23.5781L28.125 26.5781C28.5938 27.0469 28.5938 27.75 28.125 28.1719C27.7031 28.6406 27 28.6406 26.5781 28.1719L23.2031 24.7969C22.9688 24.6094 22.875 24.3281 22.875 24V19.125C22.875 18.5156 23.3438 18 24 18Z" fill="white"/>
</svg>
