<?xml version="1.0" encoding="UTF-8"?>
<svg width="9px" height="14px" viewBox="0 0 8 13" version="1.1" xmlns="http://www.w3.org/2000/svg">
    <g id="Page-1" fill-rule="evenodd">
        <g id="icon_prev">
            <path d="M6.25 12.375C6.01302 12.375 5.80339 12.293 5.62109 12.1289L0.371094 6.87891C0.207031 6.69661 0.125 6.48698 0.125 6.25C0.125 6.01302 0.207031 5.80339 0.371094 5.62109L5.62109 0.371094C5.80339 0.207031 6.01302 0.125 6.25 0.125C6.48698 0.125 6.69661 0.207031 6.87891 0.371094C7.04297 0.553385 7.125 0.763021 7.125 1C7.125 1.23698 7.04297 1.44661 6.87891 1.62891L2.23047 6.25L6.87891 10.8711C7.04297 11.0534 7.125 11.263 7.125 11.5C7.125 11.737 7.04297 11.9466 6.87891 12.1289C6.69661 12.293 6.48698 12.375 6.25 12.375Z"
                fill="#9F9D9C"/>
        </g>
    </g>
</svg>
