<?xml version="1.0" encoding="UTF-8"?>
<svg width="13px" height="14px" viewBox="0 0 13 13" version="1.1" xmlns="http://www.w3.org/2000/svg">
    <g id="Page-1" fill-rule="evenodd">
        <g id="icon_first_invalid">
            <path d="M2.48047 6.25L7.12891 10.8711C7.29297 11.0534 7.375 11.263 7.375 11.5C7.375 11.737 7.29297 11.9466 7.12891 12.1289C6.94661 12.293 6.73698 12.375 6.5 12.375C6.26302 12.375 6.05339 12.293 5.87109 12.1289L0.621094 6.87891C0.457031 6.69661 0.375 6.48698 0.375 6.25C0.375 6.01302 0.457031 5.80339 0.621094 5.62109L5.87109 0.371094C6.05339 0.207031 6.26302 0.125 6.5 0.125C6.73698 0.125 6.94661 0.207031 7.12891 0.371094C7.29297 0.553385 7.375 0.763021 7.375 1C7.375 1.23698 7.29297 1.44661 7.12891 1.62891L2.48047 6.25ZM7.73047 6.25L12.3789 10.8711C12.543 11.0534 12.625 11.263 12.625 11.5C12.625 11.737 12.543 11.9466 12.3789 12.1289C12.1966 12.293 11.987 12.375 11.75 12.375C11.513 12.375 11.3034 12.293 11.1211 12.1289L5.87109 6.87891C5.70703 6.69661 5.625 6.48698 5.625 6.25C5.625 6.01302 5.70703 5.80339 5.87109 5.62109L11.1211 0.371094C11.3034 0.207031 11.513 0.125 11.75 0.125C11.987 0.125 12.1966 0.207031 12.3789 0.371094C12.543 0.553385 12.625 0.763021 12.625 1C12.625 1.23698 12.543 1.44661 12.3789 1.62891L7.73047 6.25Z"
                fill="#9F9D9C"/>
        </g>
    </g>
</svg>
