<?xml version="1.0" encoding="utf-8"?>
<svg version="1.1" id="Layer_1" xmlns="http://www.w3.org/2000/svg" xmlns:xlink="http://www.w3.org/1999/xlink" x="0px"
     y="0px"
     viewBox="0 0 16 16" style="enable-background:new 0 0 16 16;" xml:space="preserve">
    <title>Paperclip Icon</title>
  <g>
      <path id="Page-1-Copy-21" class="st0" d="M12.375 3.125C11.5938 2.375 10.375 2.375 9.59375 3.125L3.84375 8.875C2.53125 10.1875 2.53125 12.3438 3.84375 13.6562C5.15625 14.9688 7.3125 14.9688 8.625 13.6562L13.375 8.90625C13.7188 8.5625 14.25 8.5625 14.5938 8.90625C14.9375 9.25 14.9375 9.78125 14.5938 10.125L9.84375 14.875C7.84375 16.875 4.625 16.875 2.625 14.875C0.625 12.875 0.625 9.65625 2.625 7.65625L8.375 1.90625C9.8125 0.4375 12.1562 0.4375 13.5938 1.90625C15.0625 3.34375 15.0625 5.6875 13.5938 7.125L8.09375 12.625C7.21875 13.5312 5.75 13.5312 4.875 12.625C3.96875 11.75 3.96875 10.2812 4.875 9.40625L9.375 4.90625C9.71875 4.5625 10.25 4.5625 10.5938 4.90625C10.9375 5.25 10.9375 5.78125 10.5938 6.125L6.09375 10.625C5.90625 10.8438 5.90625 11.1875 6.09375 11.4062C6.3125 11.5938 6.65625 11.5938 6.875 11.4062L12.375 5.90625C13.125 5.125 13.125 3.90625 12.375 3.125Z"
          fill="#255A90"/>
	</g>
</svg>
