<svg width="20" height="19" viewBox="0 0 20 19" fill="none" xmlns="http://www.w3.org/2000/svg">
<path d="M14.375 4.625C13.5938 3.875 12.375 3.875 11.5938 4.625L5.84375 10.375C4.53125 11.6875 4.53125 13.8438 5.84375 15.1562C7.15625 16.4688 9.3125 16.4688 10.625 15.1562L15.375 10.4062C15.7188 10.0625 16.25 10.0625 16.5938 10.4062C16.9375 10.75 16.9375 11.2812 16.5938 11.625L11.8438 16.375C9.84375 18.375 6.625 18.375 4.625 16.375C2.625 14.375 2.625 11.1562 4.625 9.15625L10.375 3.40625C11.8125 1.9375 14.1562 1.9375 15.5938 3.40625C17.0625 4.84375 17.0625 7.1875 15.5938 8.625L10.0938 14.125C9.21875 15.0312 7.75 15.0312 6.875 14.125C5.96875 13.25 5.96875 11.7812 6.875 10.9062L11.375 6.40625C11.7188 6.0625 12.25 6.0625 12.5938 6.40625C12.9375 6.75 12.9375 7.28125 12.5938 7.625L8.09375 12.125C7.90625 12.3438 7.90625 12.6875 8.09375 12.9062C8.3125 13.0938 8.65625 13.0938 8.875 12.9062L14.375 7.40625C15.125 6.625 15.125 5.40625 14.375 4.625Z" fill="#255A90"/>
</svg>
