<svg width="20" height="19" viewBox="0 0 20 19" fill="none" xmlns="http://www.w3.org/2000/svg">
<path d="M17.9688 14.0938L17.2188 17.25C17.125 17.7188 16.75 18.0312 16.2812 18.0312C8.40625 18 2 11.5938 2 3.71875C2 3.25 2.28125 2.875 2.75 2.78125L5.90625 2.03125C6.34375 1.9375 6.8125 2.1875 7 2.59375L8.46875 6C8.625 6.40625 8.53125 6.875 8.1875 7.125L6.5 8.5C7.5625 10.6562 9.3125 12.4062 11.5 13.4688L12.875 11.7812C13.125 11.4688 13.5938 11.3438 14 11.5L17.4062 12.9688C17.8125 13.1875 18.0625 13.6562 17.9688 14.0938Z" fill="#255A90"/>
</svg>
