<?xml version="1.0" encoding="utf-8"?>
<svg version="1.1" id="Layer_1" xmlns="http://www.w3.org/2000/svg" xmlns:xlink="http://www.w3.org/1999/xlink" x="0px"
     y="0px"
     viewBox="0 0 14.4 14.5" style="enable-background:new 0 0 14.4 14.5;" xml:space="preserve">
    <title>Phone Icon</title>
  <g>
      <path id="Page-1-Copy-21" class="st0" d="M15.9688 12.5938L15.2188 15.75C15.125 16.2188 14.75 16.5312 14.2812 16.5312C6.40625 16.5 0 10.0938 0 2.21875C0 1.75 0.28125 1.375 0.75 1.28125L3.90625 0.53125C4.34375 0.4375 4.8125 0.6875 5 1.09375L6.46875 4.5C6.625 4.90625 6.53125 5.375 6.1875 5.625L4.5 7C5.5625 9.15625 7.3125 10.9062 9.5 11.9688L10.875 10.2812C11.125 9.96875 11.5938 9.84375 12 10L15.4062 11.4688C15.8125 11.6875 16.0625 12.1562 15.9688 12.5938Z"
          fill="#255A90"/>
	</g>
</svg>
