<svg width="11" height="19" viewBox="0 0 11 19" fill="none" xmlns="http://www.w3.org/2000/svg">
  <path d="M1.86328 5.875C1.20703 5.875 0.851562 5.08203 1.34375 4.58984L4.95312 0.871094C5.08984
  0.707031 5.30859 0.625 5.5 0.625C5.69141 0.625 5.88281 0.707031 6.01953 0.871094L9.62891 4.58984C10.1211
  5.08203 9.76562 5.875 9.10938 5.875H1.86328ZM9.10938 7.625C9.76562 7.625 10.1211 8.44531 9.62891 8.9375L6.01953
  12.6562C5.88281 12.8203 5.69141 12.875 5.5 12.875C5.28125 12.875 5.08984 12.8203 4.95312 12.6562L1.34375
  8.9375C0.851562 8.44531 1.20703 7.625 1.86328 7.625H9.10938Z"
  fill="#474543"/>
</svg>
