<svg width="20" height="27" viewBox="0 0 20 27" transform="translate(1,8)" fill="none" xmlns="http://www.w3.org/2000/svg">
<path d="M10 18.5C7.125 18.5 4.5 17 3.0625 14.5C1.625 12.0312 1.625 9 3.0625 6.5C4.5 4.03125 7.125 2.5 10 2.5C12.8438 2.5 15.4688 4.03125 16.9062 6.5C18.3438 9 18.3438 12.0312 16.9062 14.5C15.4688 17 12.8438 18.5 10 18.5ZM10 6.5C9.5625 6.5 9.25 6.84375 9.25 7.25V10.75C9.25 11.1875 9.5625 11.5 10 11.5C10.4062 11.5 10.75 11.1875 10.75 10.75V7.25C10.75 6.84375 10.4062 6.5 10 6.5ZM9 13.5C9 14.0625 9.4375 14.5 10 14.5C10.5312 14.5 11 14.0625 11 13.5C11 12.9688 10.5312 12.5 10 12.5C9.4375 12.5 9 12.9688 9 13.5Z" fill="#CE3E39"/>
</svg>
