<?xml version="1.0" encoding="UTF-8" standalone="no"?>
<svg width="48" height="48" viewBox="0 0 48 48" fill="none" xmlns="http://www.w3.org/2000/svg">
<path d="M1 6C1 3.23858 3.23858 1 6 1H42C44.7614 1 47 3.23858 47 6V42C47 44.7614 44.7614 47 42 47H6C3.23858 47 1 44.7614 1 42V6Z" fill="#255A90"/>
<path d="M1 6C1 3.23858 3.23858 1 6 1H42C44.7614 1 47 3.23858 47 6V42C47 44.7614 44.7614 47 42 47H6C3.23858 47 1 44.7614 1 42V6Z" stroke="#255A90" stroke-width="2"/>
<path d="M36 18.75V32.25C36 33.5156 34.9688 34.5 33.75 34.5H14.25C12.9844 34.5 12 33.5156 12 32.25V15.75C12 14.5312 12.9844 13.5 14.25 13.5H21.75L24.75 16.5H33.75C34.9688 16.5 36 17.5312 36 18.75Z" fill="white"/>
</svg>
