<?xml version="1.0" encoding="UTF-8" standalone="no"?>
<svg width="48" height="48" viewBox="0 0 48 48" fill="none" xmlns="http://www.w3.org/2000/svg">
<path d="M1 6C1 3.23858 3.23858 1 6 1H42C44.7614 1 47 3.23858 47 6V42C47 44.7614 44.7614 47 42 47H6C3.23858 47 1 44.7614 1 42V6Z" fill="#255A90"/>
<path d="M1 6C1 3.23858 3.23858 1 6 1H42C44.7614 1 47 3.23858 47 6V42C47 44.7614 44.7614 47 42 47H6C3.23858 47 1 44.7614 1 42V6Z" stroke="#255A90" stroke-width="2"/>
<path d="M30.5625 15.9375C29.3906 14.8125 27.5625 14.8125 26.3906 15.9375L17.7656 24.5625C15.7969 26.5312 15.7969 29.7656 17.7656 31.7344C19.7344 33.7031 22.9688 33.7031 24.9375 31.7344L32.0625 24.6094C32.5781 24.0938 33.375 24.0938 33.8906 24.6094C34.4062 25.125 34.4062 25.9219 33.8906 26.4375L26.7656 33.5625C23.7656 36.5625 18.9375 36.5625 15.9375 33.5625C12.9375 30.5625 12.9375 25.7344 15.9375 22.7344L24.5625 14.1094C26.7188 11.9062 30.2344 11.9062 32.3906 14.1094C34.5938 16.2656 34.5938 19.7812 32.3906 21.9375L24.1406 30.1875C22.8281 31.5469 20.625 31.5469 19.3125 30.1875C17.9531 28.875 17.9531 26.6719 19.3125 25.3594L26.0625 18.6094C26.5781 18.0938 27.375 18.0938 27.8906 18.6094C28.4062 19.125 28.4062 19.9219 27.8906 20.4375L21.1406 27.1875C20.8594 27.5156 20.8594 28.0312 21.1406 28.3594C21.4688 28.6406 21.9844 28.6406 22.3125 28.3594L30.5625 20.1094C31.6875 18.9375 31.6875 17.1094 30.5625 15.9375Z" fill="white"/>
</svg>
