<svg width="32" height="33" viewBox="0 0 32 33" fill="none" xmlns="http://www.w3.org/2000/svg">
<path d="M16 17C14.2031 17 12.5625 16.0625 11.6641 14.5C10.7656 12.9766 10.7656 11.0625 11.6641 9.5C12.5625 7.97656 14.2031 7 16 7C17.7578 7 19.3984 7.97656 20.2969 9.5C21.1953 11.0625 21.1953 12.9766 20.2969 14.5C19.3984 16.0625 17.7578 17 16 17ZM14.2031 18.875H17.7578C21.625 18.875 24.75 22 24.75 25.8672C24.75 26.4922 24.2031 27 23.5781 27H8.38281C7.75781 27 7.25 26.4922 7.25 25.8672C7.25 22 10.3359 18.875 14.2031 18.875Z" fill="white"/>
</svg>
