<svg width="20" height="21" viewBox="0 0 20 21" fill="none" xmlns="http://www.w3.org/2000/svg">
<path d="M16.75 3.6875L17.3125 4.25C17.6667 4.625 17.8438 5.04167 17.8438 5.5C17.8438 5.95833 17.6667 6.375 17.3125 6.75L16.375 7.6875L13.3125 4.625L14.25 3.6875C14.625 3.33333 15.0417 3.15625 15.5 3.15625C15.9583 3.15625 16.375 3.33333 16.75 3.6875ZM7.375 10.5625L12.625 5.3125L15.6875 8.375L10.4375 13.625C10.25 13.8125 10.0312 13.9479 9.78125 14.0312L7 14.9688C6.70833 15.0521 6.44792 14.9896 6.21875 14.7812C6.01042 14.5521 5.94792 14.2917 6.03125 14L6.96875 11.25C7.05208 10.9792 7.1875 10.75 7.375 10.5625ZM5 5H8C8.29167 5 8.53125 5.09375 8.71875 5.28125C8.90625 5.46875 9 5.70833 9 6C9 6.29167 8.90625 6.53125 8.71875 6.71875C8.53125 6.90625 8.29167 7 8 7H5C4.70833 7 4.46875 7.09375 4.28125 7.28125C4.09375 7.46875 4 7.70833 4 8V16C4 16.2917 4.09375 16.5312 4.28125 16.7188C4.46875 16.9062 4.70833 17 5 17H13C13.2917 17 13.5312 16.9062 13.7188 16.7188C13.9062 16.5312 14 16.2917 14 16V13C14 12.7083 14.0938 12.4688 14.2812 12.2812C14.4688 12.0938 14.7083 12 15 12C15.2917 12 15.5312 12.0938 15.7188 12.2812C15.9062 12.4688 16 12.7083 16 13V16C15.9792 16.8542 15.6875 17.5625 15.125 18.125C14.5625 18.6875 13.8542 18.9792 13 19H5C4.14583 18.9792 3.4375 18.6875 2.875 18.125C2.3125 17.5625 2.02083 16.8542 2 16V8C2.02083 7.14583 2.3125 6.4375 2.875 5.875C3.4375 5.3125 4.14583 5.02083 5 5Z" fill="white"/>
</svg>
