<?xml version="1.0" encoding="UTF-8"?>
<svg width="9px" height="14px" viewBox="0 0 8 13" version="1.1" xmlns="http://www.w3.org/2000/svg">
    <g id="Page-1" fill-rule="evenodd">
        <g id="icon_next_invalid">
            <path d="M1.75 12.375C1.51302 12.375 1.30339 12.293 1.12109 12.1289C0.957031 11.9466 0.875 11.737 0.875 11.5C0.875 11.263 0.957031 11.0534 1.12109 10.8711L5.76953 6.25L1.12109 1.62891C0.957031 1.44661 0.875 1.23698 0.875 1C0.875 0.763021 0.957031 0.553385 1.12109 0.371094C1.30339 0.207031 1.51302 0.125 1.75 0.125C1.98698 0.125 2.19661 0.207031 2.37891 0.371094L7.62891 5.62109C7.79297 5.80339 7.875 6.01302 7.875 6.25C7.875 6.48698 7.79297 6.69661 7.62891 6.87891L2.37891 12.1289C2.19661 12.293 1.98698 12.375 1.75 12.375Z"
                fill="#474543"/>
        </g>
    </g>
</svg>
