<?xml version="1.0" encoding="UTF-8"?>
<svg width="13px" height="14px" viewBox="0 0 13 13" version="1.1" xmlns="http://www.w3.org/2000/svg">
    <g id="Page-1" fill-rule="evenodd">
        <g id="icon_last_invalid">
            <path d="M7.12891 5.62109C7.29297 5.80339 7.375 6.01302 7.375 6.25C7.375 6.48698 7.29297 6.69661 7.12891 6.87891L1.87891 12.1289C1.69661 12.293 1.48698 12.375 1.25 12.375C1.01302 12.375 0.803385 12.293 0.621094 12.1289C0.457031 11.9466 0.375 11.737 0.375 11.5C0.375 11.263 0.457031 11.0534 0.621094 10.8711L5.26953 6.25L0.621094 1.62891C0.457031 1.44661 0.375 1.23698 0.375 1C0.375 0.763021 0.457031 0.553385 0.621094 0.371094C0.803385 0.207031 1.01302 0.125 1.25 0.125C1.48698 0.125 1.69661 0.207031 1.87891 0.371094L7.12891 5.62109ZM12.3789 5.62109C12.543 5.80339 12.625 6.01302 12.625 6.25C12.625 6.48698 12.543 6.69661 12.3789 6.87891L7.12891 12.1289C6.94661 12.293 6.73698 12.375 6.5 12.375C6.26302 12.375 6.05339 12.293 5.87109 12.1289C5.70703 11.9466 5.625 11.737 5.625 11.5C5.625 11.263 5.70703 11.0534 5.87109 10.8711L10.5195 6.25L5.87109 1.62891C5.70703 1.44661 5.625 1.23698 5.625 1C5.625 0.763021 5.70703 0.553385 5.87109 0.371094C6.05339 0.207031 6.26302 0.125 6.5 0.125C6.73698 0.125 6.94661 0.207031 7.12891 0.371094L12.3789 5.62109Z"
                fill="#474543"/>
        </g>
    </g>
</svg>
