<svg width="16" height="17" viewBox="0 0 16 17" fill="none" xmlns="http://www.w3.org/2000/svg">
<path d="M0.5 2.67041C0.5 1.84198 1.17157 1.17041 2 1.17041H14C14.8284 1.17041 15.5 1.84198 15.5 2.67041V14.6704C15.5 15.4988 14.8284 16.1704 14 16.1704H2C1.17157 16.1704 0.5 15.4988 0.5 14.6704V2.67041Z" fill="#053662" stroke="#053662"/>
<path d="M12.1797 5.99072C12.4336 6.2251 12.4336 6.63525 12.1797 6.86963L7.17969 11.8696C6.94531 12.1235 6.53516 12.1235 6.30078 11.8696L3.80078 9.36963C3.54688 9.13525 3.54688 8.7251 3.80078 8.49072C4.03516 8.23682 4.44531 8.23682 4.67969 8.49072L6.73047 10.5415L11.3008 5.99072C11.5352 5.73682 11.9453 5.73682 12.1797 5.99072Z" fill="white"/>
</svg>
